<svg xmlns="http://www.w3.org/2000/svg" width="316.101" height="26.496" viewBox="0 0 316.101 26.496"><defs><style>.a{fill:#fff;}</style></defs><g transform="translate(-711.398 -544.051)"><path class="a" d="M720.245,561.708c-3.6-.885-7.009-1.722-7.009-5.39,0-3.092,2.644-5.013,6.9-5.013a10.843,10.843,0,0,1,6.194,1.977l.181.132.609-.885-.164-.125a11.787,11.787,0,0,0-6.853-2.164c-5.872,0-7.964,3.122-7.964,6.044,0,4.541,3.96,5.5,7.79,6.436,3.57.869,6.942,1.689,6.942,5.316,0,3.1-2.641,4.948-7.066,4.948a10.218,10.218,0,0,1-7.481-3l-.147-.174-.779.723.128.158c1.628,2.009,4.968,3.358,8.313,3.358,5.994,0,8.13-3.105,8.13-6.011C727.969,563.606,724.042,562.641,720.245,561.708Z" transform="translate(0 -4.845)"/><path class="a" d="M1395.295,572.431l-7.623-21.734h-.971l-7.59,21.668-7.428-21.668h-1.188l8.095,23.609h.971l7.626-21.805,7.625,21.805h.972l8.094-23.609h-1.155Z" transform="translate(-516.014 -5.204)"/><path class="a" d="M2100,561.708c-3.6-.885-7.009-1.722-7.009-5.39,0-3.092,2.644-5.013,6.9-5.013a10.845,10.845,0,0,1,6.2,1.977l.181.132.608-.885-.164-.125a11.787,11.787,0,0,0-6.852-2.164c-5.872,0-7.964,3.122-7.964,6.044,0,4.541,3.96,5.5,7.79,6.436,3.57.869,6.942,1.689,6.942,5.316,0,3.1-2.641,4.948-7.066,4.948a10.218,10.218,0,0,1-7.481-3l-.147-.174-.78.723.128.158c1.628,2.009,4.968,3.358,8.313,3.358,5.994,0,8.13-3.105,8.13-6.011C2107.725,563.606,2103.8,562.641,2100,561.708Z" transform="translate(-1080.226 -4.845)"/><g transform="translate(743.497 545.494)"><path class="a" d="M860.355,550.7h-1.1v23.609h1.1V562.852H872.14v-1.064H860.355Z" transform="translate(-859.258 -550.698)"/><rect class="a" width="1.097" height="23.609" transform="translate(17.546 0)"/></g><g transform="translate(943.133 545.494)"><path class="a" d="M1817.024,558.53c0-4.9-3.485-7.832-9.322-7.832h-2.3v1.064h2.369c5.261,0,8.158,2.4,8.158,6.768s-2.9,6.768-8.158,6.768H1805.4v1.064h2.3a14.646,14.646,0,0,0,2.62-.209l5.876,8.155h1.364l-6.09-8.433A7.15,7.15,0,0,0,1817.024,558.53Z" transform="translate(-1799.639 -550.698)"/><rect class="a" width="1.097" height="23.609" transform="translate(0 0)"/></g><path class="a" d="M1229.032,550.7l-15.383,15.8V550.7h-1.1v23.609h1.1V568.02l5.537-5.7.007.008,11.34-11.635Z" transform="translate(-392.359 -5.204)"/><path class="a" d="M1251.321,610.7l8.754,9.892.065.073h1.474l-9.505-10.754Z" transform="translate(-422.712 -51.564)"/><g transform="translate(976.592 545.494)"><path class="a" d="M1949.467,550.7l-15.383,15.8V550.7h-1.1v23.609h1.1V568.02l5.537-5.7.007.008,11.34-11.635Z" transform="translate(-1932.987 -550.698)"/><path class="a" d="M1971.755,610.7l8.754,9.892.065.073h1.474l-9.505-10.754Z" transform="translate(-1963.339 -597.058)"/></g><path class="a" d="M1607.626,550.24a11.905,11.905,0,1,0,0,23.807h.217v-1.064h-.217a10.841,10.841,0,1,1,11.005-10.84v.218h1.1v-.218A11.741,11.741,0,0,0,1607.626,550.24Z" transform="translate(-692.192 -4.845)"/><g transform="translate(777.619 544.051)"><path class="a" d="M1091.323,588.766a.206.206,0,0,0-.007.042.186.186,0,0,0,.025.1.191.191,0,0,0,.261.072l3.51-2-.189-.333-3.51,2A.192.192,0,0,0,1091.323,588.766Z" transform="translate(-1075.061 -577.401)"/><path class="a" d="M1047.549,579.291a1.332,1.332,0,1,0,1.263.252A1.329,1.329,0,0,0,1047.549,579.291Zm1.406,1.186a1.008,1.008,0,0,1-.7,1.044,1.013,1.013,0,0,1-.22.043,1.006,1.006,0,1,1,.919-1.087Z" transform="translate(-1040.068 -571.591)"/><path class="a" d="M1107.08,579.682a1.339,1.339,0,0,0-.047.295,1.332,1.332,0,0,0,2.616.412,1.343,1.343,0,0,0-.126-1.012,1.332,1.332,0,0,0-1.817-.5h0A1.323,1.323,0,0,0,1107.08,579.682Zm1.551-.617h0a1.007,1.007,0,0,1,.739,1.016,1.018,1.018,0,0,1-.035.221,1.006,1.006,0,1,1-.7-1.237Z" transform="translate(-1087.365 -571.18)"/><path class="a" d="M1063.748,587.556a3.8,3.8,0,1,0,3.8,3.8A3.807,3.807,0,0,0,1063.748,587.556Zm0,7.06a3.258,3.258,0,1,1,3.258-3.258A3.261,3.261,0,0,1,1063.748,594.616Z" transform="translate(-1050.5 -578.112)"/><path class="a" d="M1042.864,557.089a.246.246,0,0,0-.175-.074l-2.218.005-.009-.208a10.686,10.686,0,0,0-.254-1.9l-.046-.2,2.135-.58a.246.246,0,0,0,.15-.117.25.25,0,0,0,.022-.188l-.064-.225c-.049-.176-.11-.4-.188-.621l-.358-.913c-.036-.093-.074-.19-.124-.3l-.593-1.146-.706-1.084c-.053-.075-.117-.154-.178-.228l-.636-.786c-.137-.157-.287-.309-.42-.442l-.02-.02-.155-.158a.245.245,0,0,0-.174-.074.248.248,0,0,0-.175.072l-1.562,1.571-.153-.141a10.794,10.794,0,0,0-1.523-1.161l-.176-.111,1.1-1.923a.248.248,0,0,0,.023-.189.246.246,0,0,0-.119-.149l-.771-.416c-.184-.087-.383-.171-.558-.245l-.635-.267c-.066-.023-.142-.048-.221-.074l-.016-.005-1.018-.317-.922-.2c-.114-.024-.217-.046-.338-.066l-.71-.084c-.184-.021-.376-.043-.588-.059l-.836-.018-.047.006a.212.212,0,0,0-.042.011.221.221,0,0,0-.042.02l-.017.009-.063.065a.237.237,0,0,0-.042.136l.014,4.577h.491l-.013-4.327.571.01c.2.016.395.038.566.057l.281.031.4.05c.119.021.227.044.336.067l.873.187.991.31.208.068.629.265c.19.08.368.155.523.229l.539.29-1.1,1.918a.245.245,0,0,0,.092.336,10.222,10.222,0,0,1,2.137,1.63.255.255,0,0,0,.347,0l1.56-1.57.154.159c.085.087.167.174.24.258l.631.781c.055.067.111.136.152.193l.682,1.046.583,1.125c.04.085.071.165.105.253l.357.91c.038.108.073.222.113.36l.061.212-2.133.579a.245.245,0,0,0-.173.3,10.2,10.2,0,0,1,.357,2.666.244.244,0,0,0,.073.173.23.23,0,0,0,.165.072l2.219-.006-.012.576c-.017.237-.045.47-.07.676l-.066.567c-.015.091-.032.171-.049.25l-.205.959-.377,1.2-.259.616c-.079.185-.16.376-.238.542l-.29.539-1.918-1.1a.242.242,0,0,0-.185-.024.246.246,0,0,0-.15.116,10.2,10.2,0,0,1-1.629,2.139.249.249,0,0,0-.071.174.242.242,0,0,0,.071.171l1.568,1.559-.157.154c-.1.1-.185.177-.256.24l-.78.631c-.075.06-.139.112-.2.156l-1.039.678-1.132.585c-.082.041-.163.073-.242.1l-.913.359c-.11.038-.22.073-.359.113l-.211.061-.579-2.134a.246.246,0,0,0-.117-.149.242.242,0,0,0-.185-.023,10.23,10.23,0,0,1-2.664.357.246.246,0,0,0-.173.072.242.242,0,0,0-.072.174l.006,2.211-.577-.013c-.225-.016-.443-.042-.635-.065l-.6-.07c-.076-.014-.138-.026-.21-.042l-1-.214-.985-.309-.213-.068-.581-.245c-.2-.083-.4-.169-.574-.248l-.539-.292,1.1-1.918a.245.245,0,0,0-.091-.336,10.222,10.222,0,0,1-2.14-1.629.235.235,0,0,0-.174-.071.242.242,0,0,0-.172.072l-1.559,1.568-.154-.158c-.1-.107-.179-.186-.24-.257l-.534-.656c-.034-.045-.066-.084-.1-.124l-.015-.018c-.054-.067-.1-.127-.138-.178l-.681-1.044-.583-1.127c-.028-.06-.051-.115-.074-.171l-.03-.076c-.019-.048-.038-.094-.052-.129l-.307-.787c-.046-.132-.083-.256-.114-.36l-.061-.212,2.135-.58a.243.243,0,0,0,.148-.114.246.246,0,0,0,.024-.188,10.185,10.185,0,0,1-.359-2.662.25.25,0,0,0-.073-.175.243.243,0,0,0-.172-.07l-2.211.005.011-.571c.015-.195.035-.369.06-.577l.079-.67c.017-.1.035-.19.054-.279l.2-.931.29-.928c.031-.1.062-.2.089-.275l.32-.759c.062-.144.119-.276.171-.39l.293-.54,1.919,1.1a.246.246,0,0,0,.335-.093,10.132,10.132,0,0,1,1.628-2.139.245.245,0,0,0,.071-.174.248.248,0,0,0-.073-.173l-1.568-1.558.156-.154c.1-.1.184-.177.256-.241l.658-.533c.046-.035.086-.066.13-.1l.018-.014c.068-.054.126-.1.177-.137l1.041-.68,1.125-.582c.072-.034.14-.061.206-.088l.028-.011c.063-.025.108-.043.142-.058l.784-.308c.124-.044.246-.08.361-.112l.211-.061.575,2.118.464-.164-.63-2.32a.245.245,0,0,0-.3-.172l-.25.07c-.192.053-.387.106-.6.18l-.8.314c-.037.016-.082.034-.129.053-.088.035-.18.071-.279.118l-1.164.6-1.062.693c-.07.05-.142.106-.214.165l-.038.031-.1.076-.67.542c-.151.132-.3.28-.43.411l-.022.022-.164.163a.245.245,0,0,0,0,.349l1.57,1.561-.141.154a10.676,10.676,0,0,0-1.16,1.524l-.111.177-1.923-1.1a.246.246,0,0,0-.338.1l-.418.772c-.075.162-.15.338-.225.513l-.286.681c-.035.1-.071.211-.106.324l-.29.929-.207.957c-.02.094-.039.189-.059.306l-.082.692c-.024.2-.046.389-.062.6l-.016.838a.251.251,0,0,0,.071.178.248.248,0,0,0,.175.073l2.216-.006.009.208a10.72,10.72,0,0,0,.256,1.9l.046.2-2.137.581a.245.245,0,0,0-.172.306l.068.241c.047.169.105.38.184.6l.312.8c.015.035.033.08.058.143.037.093.069.172.112.264l.605,1.166.693,1.062c.049.07.106.141.163.212l.028.034.081.1.545.669c.137.156.29.311.425.447l.167.169a.253.253,0,0,0,.177.076.256.256,0,0,0,.175-.073l1.559-1.569.154.14a10.736,10.736,0,0,0,1.525,1.161l.176.111-1.1,1.924a.247.247,0,0,0,.1.337l.773.418c.2.092.416.184.609.265l.585.246c.068.024.146.049.226.074l.014,0,1.015.317.982.211c.1.021.178.037.282.056l.622.073c.2.023.427.05.668.067l.841.018a.24.24,0,0,0,.177-.07.249.249,0,0,0,.074-.177l-.006-2.216.208-.009a10.723,10.723,0,0,0,1.9-.254l.2-.046.58,2.134a.237.237,0,0,0,.116.15.245.245,0,0,0,.187.023l.231-.065c.2-.056.4-.112.615-.187l.9-.354c.106-.041.2-.079.3-.129l1.168-.606,1.056-.689c.084-.056.168-.124.25-.19l.778-.628c.15-.132.3-.283.436-.416l.179-.176a.249.249,0,0,0,.075-.176.244.244,0,0,0-.072-.174l-1.57-1.56.14-.153a10.732,10.732,0,0,0,1.16-1.525l.111-.177,1.924,1.1a.246.246,0,0,0,.338-.1h0l.416-.77c.083-.175.165-.368.245-.555l.272-.646c.021-.061.045-.137.075-.231l.319-1.018.208-.971c.019-.089.038-.178.057-.293l.068-.59c.024-.2.053-.44.072-.7l.018-.84A.243.243,0,0,0,1042.864,557.089Z" transform="translate(-1016.438 -544.051)"/><rect class="a" width="0.491" height="1.574" transform="matrix(1, -0.003, 0.003, 1, 12.987, 8.145)"/><path class="a" d="M1076.225,569.591h.491l-.01-3.32h-.491Z" transform="translate(-1063.238 -561.447)"/><path class="a" d="M1076.225,642.334h.491l-.01-6.181h-.491Z" transform="translate(-1063.238 -616.159)"/><path class="a" d="M1052.186,599.491a6.472,6.472,0,0,1-4.629-1.516,6.54,6.54,0,0,1-1.4-8.258l-.359-.144a6.942,6.942,0,0,0,1.511,8.694,6.823,6.823,0,0,0,4.872,1.607Z" transform="translate(-1038.714 -579.69)"/></g></g></svg>