<svg xmlns="http://www.w3.org/2000/svg" width="400" height="33.87" viewBox="0 0 400 33.87"><defs><style>.a{fill:#fff;}</style></defs><g transform="translate(-91.114 -78)"><path d="M66.6,808.549c-4.561-1.121-8.869-2.179-8.869-6.821,0-3.913,3.346-6.344,8.732-6.344a13.721,13.721,0,0,1,7.839,2.5l.229.167.77-1.119-.208-.159a14.914,14.914,0,0,0-8.672-2.738c-7.43,0-10.077,3.951-10.077,7.648,0,5.747,5.011,6.965,9.857,8.144,4.518,1.1,8.785,2.137,8.785,6.727,0,3.921-3.343,6.261-8.942,6.261-3.74,0-7.544-1.527-9.467-3.8l-.186-.22-.986.915.162.2c2.06,2.542,6.287,4.25,10.519,4.25,7.585,0,10.288-3.93,10.288-7.607C76.373,810.951,71.4,809.73,66.6,808.549Z" transform="translate(35.71 -714.338)"/><path d="M745.884,822l-9.646-27.5h-1.228l-9.6,27.42L716,794.5h-1.5l10.243,29.875h1.229l9.65-27.593,9.649,27.593h1.23L756.745,794.5h-1.462Z" transform="translate(-442.324 -714.67)"/><path d="M1446.356,808.549c-4.561-1.121-8.868-2.179-8.868-6.821,0-3.913,3.345-6.344,8.731-6.344a13.722,13.722,0,0,1,7.839,2.5l.229.167.769-1.119-.208-.159a14.914,14.914,0,0,0-8.671-2.738c-7.431,0-10.078,3.951-10.078,7.648,0,5.747,5.011,6.965,9.857,8.144,4.518,1.1,8.785,2.137,8.785,6.727,0,3.921-3.343,6.261-8.941,6.261-3.74,0-7.544-1.527-9.467-3.8l-.186-.22-.987.914.162.2c2.06,2.542,6.287,4.25,10.52,4.25,7.585,0,10.287-3.93,10.287-7.607C1456.129,810.951,1451.16,809.73,1446.356,808.549Z" transform="translate(-965.015 -714.338)"/><g transform="translate(131.735 79.826)"><path d="M204.652,794.5h-1.388v29.875h1.388V809.876h14.913V808.53H204.652Z" transform="translate(-203.264 -794.496)"/><rect width="1.388" height="29.875" transform="translate(22.203 0)"/></g><g transform="translate(384.359 79.826)"><g transform="translate(0 0)"><path d="M1164.115,804.406c0-6.205-4.41-9.911-11.8-9.911h-2.913v1.346h3c6.657,0,10.323,3.042,10.323,8.564s-3.666,8.564-10.323,8.564h-3v1.346h2.913a18.528,18.528,0,0,0,3.315-.265l7.436,10.319h1.727L1157.09,813.7A9.048,9.048,0,0,0,1164.115,804.406Z" transform="translate(-1142.116 -794.496)"/><rect width="1.388" height="29.875" transform="translate(0 0)"/></g></g><g transform="translate(228.786 79.826)"><path d="M577.413,794.5l-19.466,20v-20h-1.388v29.875h1.388v-7.955l7.006-7.207.009.01,14.35-14.723Z" transform="translate(-556.559 -794.496)"/><path d="M595.327,854.708l11.078,12.518.082.093h1.865l-12.028-13.608Z" transform="translate(-584.677 -837.444)"/></g><g transform="translate(426.7 79.826)"><path d="M1297.848,794.5l-19.466,20v-20h-1.388v29.875h1.388v-7.955l7.006-7.207.009.01,14.35-14.723Z" transform="translate(-1276.994 -794.496)"/><path d="M1315.762,854.708l11.078,12.518.082.093h1.865l-12.029-13.608Z" transform="translate(-1305.112 -837.444)"/></g><path d="M954.845,794.038c-8.731,0-15.314,6.476-15.314,15.063s6.584,15.063,15.314,15.063h.275v-1.346h-.275A13.719,13.719,0,1,1,968.772,809.1v.275h1.388V809.1C970.16,800.514,963.576,794.038,954.845,794.038Z" transform="translate(-605.535 -714.338)"/><circle class="a" cx="16.935" cy="16.935" r="16.935" transform="translate(174.822 78)"/><g transform="translate(174.911 78)"><path d="M435.331,833.126a.228.228,0,0,0-.009.053.242.242,0,0,0,.362.221l4.441-2.532-.239-.421-4.441,2.532A.242.242,0,0,0,435.331,833.126Z" transform="translate(-414.752 -818.744)"/><path d="M391.8,823.106a1.685,1.685,0,0,0,.65,3.286,1.7,1.7,0,0,0,1.147-.591,1.685,1.685,0,0,0-1.8-2.7Zm1.779,1.5a1.275,1.275,0,0,1-.885,1.32,1.288,1.288,0,0,1-.279.055,1.274,1.274,0,1,1,1.164-1.375Z" transform="translate(-382.335 -813.362)"/><path d="M451.1,823.74a1.7,1.7,0,0,0-.06.373,1.686,1.686,0,0,0,3.31.521,1.7,1.7,0,0,0-.16-1.281,1.686,1.686,0,0,0-2.3-.631h0A1.675,1.675,0,0,0,451.1,823.74Zm1.963-.781h0a1.273,1.273,0,0,1,.935,1.286,1.288,1.288,0,0,1-.044.28,1.273,1.273,0,1,1-.891-1.566Z" transform="translate(-426.151 -812.982)"/><path d="M408.763,831.354a4.812,4.812,0,1,0,4.812,4.812A4.818,4.818,0,0,0,408.763,831.354Zm0,8.935a4.122,4.122,0,1,1,4.122-4.122A4.127,4.127,0,0,1,408.763,840.289Z" transform="translate(-391.999 -819.403)"/><path d="M393.884,804.347a.311.311,0,0,0-.222-.094l-2.806.007-.012-.264a13.506,13.506,0,0,0-.322-2.4l-.058-.257,2.7-.734a.314.314,0,0,0,.19-.148.317.317,0,0,0,.027-.238l-.081-.285c-.062-.223-.139-.5-.238-.785l-.453-1.156c-.046-.118-.094-.24-.158-.375l-.75-1.45-.893-1.371c-.067-.1-.148-.195-.225-.289l-.805-.995c-.174-.2-.364-.391-.532-.559l-.025-.026-.2-.2a.31.31,0,0,0-.221-.094.314.314,0,0,0-.221.091l-1.977,1.988-.194-.178a13.647,13.647,0,0,0-1.927-1.469l-.223-.14,1.392-2.434a.31.31,0,0,0-.121-.428l-.976-.526c-.233-.11-.485-.216-.706-.31l-.8-.338c-.083-.029-.18-.061-.279-.093l-.02-.007-1.288-.4-1.167-.252c-.145-.03-.275-.058-.428-.084l-.9-.107c-.233-.026-.476-.054-.744-.074l-1.057-.022-.06.008a.263.263,0,0,0-.052.014.293.293,0,0,0-.053.024l-.022.012-.08.082a.3.3,0,0,0-.053.172l.018,5.791h.621l-.017-5.475.723.013c.255.02.5.048.716.072l.355.04.51.063c.151.026.287.055.425.085l1.1.237,1.254.392.263.086.8.335c.241.1.465.2.662.289l.682.367-1.389,2.426a.31.31,0,0,0,.116.425,12.936,12.936,0,0,1,2.7,2.062.323.323,0,0,0,.439,0l1.974-1.986.195.2c.108.111.212.22.3.326l.8.988c.07.085.14.172.193.245l.863,1.324.737,1.424c.051.108.09.209.133.32l.452,1.151c.048.137.093.281.143.455l.077.268-2.7.733a.31.31,0,0,0-.218.381,12.912,12.912,0,0,1,.452,3.374.309.309,0,0,0,.092.218.292.292,0,0,0,.208.091l2.808-.007-.015.729c-.021.3-.057.6-.089.856l-.083.717c-.019.115-.041.216-.062.316l-.26,1.214-.476,1.512-.328.78c-.1.234-.2.477-.3.686l-.367.682-2.427-1.389a.308.308,0,0,0-.235-.03.311.311,0,0,0-.189.146,12.912,12.912,0,0,1-2.061,2.707.315.315,0,0,0-.09.22.307.307,0,0,0,.09.217l1.985,1.973-.2.2c-.128.124-.234.224-.324.3l-.987.8c-.094.076-.176.142-.257.2l-1.314.858-1.433.741c-.1.051-.207.092-.306.131l-1.155.454c-.139.049-.278.092-.454.142l-.267.078-.733-2.7a.313.313,0,0,0-.148-.189.305.305,0,0,0-.234-.028,12.955,12.955,0,0,1-3.371.452.312.312,0,0,0-.219.091.306.306,0,0,0-.091.22l.007,2.8-.73-.016c-.285-.02-.561-.053-.8-.082l-.761-.088c-.1-.017-.174-.034-.266-.053l-1.271-.271-1.246-.39-.27-.087-.735-.311c-.25-.1-.509-.214-.726-.314l-.682-.37,1.388-2.427a.309.309,0,0,0-.115-.425,12.935,12.935,0,0,1-2.708-2.061.3.3,0,0,0-.221-.09.306.306,0,0,0-.218.091l-1.973,1.984-.194-.2c-.132-.136-.226-.236-.3-.325l-.676-.83c-.043-.057-.083-.107-.123-.157l-.018-.023c-.069-.085-.129-.161-.174-.225l-.862-1.321-.738-1.426c-.036-.075-.065-.146-.093-.216l-.038-.1c-.024-.061-.047-.119-.066-.163l-.388-1c-.059-.167-.106-.324-.144-.456l-.077-.269,2.7-.734a.308.308,0,0,0,.188-.145.312.312,0,0,0,.03-.238,12.887,12.887,0,0,1-.454-3.369.317.317,0,0,0-.093-.222.308.308,0,0,0-.217-.089l-2.8.007.014-.722c.019-.246.045-.467.076-.73l.1-.847c.021-.127.045-.241.068-.352l.253-1.178.367-1.174c.04-.128.079-.252.113-.348l.4-.96c.078-.182.15-.35.217-.493l.371-.683,2.428,1.39a.311.311,0,0,0,.424-.117,12.808,12.808,0,0,1,2.06-2.707.31.31,0,0,0,.09-.221.314.314,0,0,0-.092-.219l-1.984-1.972.2-.2c.13-.128.233-.224.324-.305l.832-.674c.058-.044.109-.084.164-.128l.022-.018c.086-.069.159-.128.224-.173l1.317-.86,1.424-.737c.091-.043.177-.078.261-.111l.036-.014c.08-.032.137-.054.179-.073l.992-.389c.157-.055.312-.1.457-.142l.268-.077.728,2.68.588-.207-.8-2.935a.31.31,0,0,0-.385-.218l-.317.089c-.243.067-.49.135-.755.227l-1.012.4c-.047.021-.1.043-.163.067-.112.044-.227.09-.353.15l-1.473.764-1.344.877c-.089.063-.179.135-.272.209l-.048.039c-.037.03-.077.061-.123.1l-.848.686c-.191.167-.378.355-.544.521l-.028.028-.208.206a.313.313,0,0,0-.094.222.308.308,0,0,0,.091.22l1.987,1.975-.179.195a13.536,13.536,0,0,0-1.468,1.929l-.14.223-2.433-1.393a.311.311,0,0,0-.428.122l-.529.976c-.1.2-.19.427-.285.649l-.363.862c-.045.126-.089.267-.134.411l-.367,1.175-.262,1.211c-.025.119-.049.239-.075.387l-.1.876c-.031.259-.058.492-.079.761l-.02,1.06a.311.311,0,0,0,.312.317l2.8-.007.012.263a13.57,13.57,0,0,0,.324,2.4l.058.257-2.7.735a.31.31,0,0,0-.217.387l.086.3c.06.214.133.481.233.765l.4,1.016c.019.044.042.1.073.181.047.118.086.217.142.334l.766,1.476.877,1.343c.062.088.134.179.206.269l.035.044c.038.048.068.085.1.13l.689.846c.173.2.367.393.538.565l.211.214a.321.321,0,0,0,.224.1.324.324,0,0,0,.221-.093l1.973-1.985.194.177a13.612,13.612,0,0,0,1.93,1.469l.223.14-1.393,2.434a.312.312,0,0,0,.121.427l.978.53c.249.116.526.232.771.335l.74.312c.085.031.185.062.286.094l.017.006,1.285.4,1.243.267c.126.026.226.047.357.07l.786.092c.253.03.54.063.845.085l1.064.023a.3.3,0,0,0,.224-.088.314.314,0,0,0,.094-.224l-.008-2.8.263-.011a13.527,13.527,0,0,0,2.4-.322l.257-.058.734,2.7a.3.3,0,0,0,.147.19.308.308,0,0,0,.237.029l.293-.083c.253-.071.507-.142.779-.237l1.141-.448c.134-.052.256-.1.383-.163l1.478-.767,1.336-.871c.106-.072.213-.158.316-.241l.984-.8c.19-.167.383-.358.552-.526l.227-.223a.316.316,0,0,0,.1-.223.308.308,0,0,0-.091-.221l-1.987-1.975.177-.194a13.6,13.6,0,0,0,1.468-1.93l.14-.223,2.435,1.393a.312.312,0,0,0,.239.029.309.309,0,0,0,.188-.151h0l.526-.975c.1-.221.209-.466.309-.7l.344-.818c.026-.078.057-.173.1-.293l.4-1.288.264-1.228c.024-.112.048-.225.072-.37l.087-.747c.03-.249.067-.557.091-.886l.022-1.063A.308.308,0,0,0,393.884,804.347Z" transform="translate(-360.444 -787.849)"/><rect width="0.621" height="1.992" transform="matrix(1, -0.003, 0.003, 1, 16.434, 10.307)"/><path d="M420.234,814.27h.621l-.013-4.2h-.621Z" transform="translate(-403.8 -803.965)"/><path d="M420.234,887.772h.621l-.013-7.821h-.621Z" transform="translate(-403.8 -854.65)"/><path d="M398.128,845.921A8.191,8.191,0,0,1,392.27,844a8.276,8.276,0,0,1-1.77-10.45l-.454-.182a8.784,8.784,0,0,0,1.912,11,8.634,8.634,0,0,0,6.166,2.034Z" transform="translate(-381.08 -820.865)"/></g></g></svg>